<svg preserveAspectRatio="none" width="100%" height="100%" overflow="visible" style="display: block;" viewBox="0 0 20 20" fill="none" xmlns="http://www.w3.org/2000/svg">
<g id="ruler">
<path id="Vector" d="M15.8333 14.7917H4.16667C2.15 14.7917 1.04167 13.6833 1.04167 11.6667V8.33333C1.04167 6.31667 2.15 5.20833 4.16667 5.20833H15.8333C17.85 5.20833 18.9583 6.31667 18.9583 8.33333V11.6667C18.9583 13.6833 17.85 14.7917 15.8333 14.7917ZM4.16667 6.45833C2.85 6.45833 2.29167 7.01667 2.29167 8.33333V11.6667C2.29167 12.9833 2.85 13.5417 4.16667 13.5417H15.8333C17.15 13.5417 17.7083 12.9833 17.7083 11.6667V8.33333C17.7083 7.01667 17.15 6.45833 15.8333 6.45833H4.16667Z" fill="var(--fill-0, white)"/>
<path id="Vector_2" d="M15 10.625C14.6583 10.625 14.375 10.3417 14.375 10V5.83333C14.375 5.49167 14.6583 5.20833 15 5.20833C15.3417 5.20833 15.625 5.49167 15.625 5.83333V10C15.625 10.3417 15.3417 10.625 15 10.625Z" fill="var(--fill-0, white)"/>
<path id="Vector_3" d="M5 9.79167C4.65833 9.79167 4.375 9.50833 4.375 9.16667V5.83333C4.375 5.49167 4.65833 5.20833 5 5.20833C5.34167 5.20833 5.625 5.49167 5.625 5.83333V9.16667C5.625 9.50833 5.34167 9.79167 5 9.79167Z" fill="var(--fill-0, white)"/>
<path id="Vector_4" d="M8.33333 10.625C7.98333 10.625 7.70833 10.3417 7.70833 9.99167L7.75 5.825C7.75 5.48333 8.03333 5.20833 8.375 5.20833C8.375 5.20833 8.375 5.20833 8.38333 5.20833C8.725 5.20833 9.00833 5.49167 9 5.84167L8.95833 10.0083C8.95833 10.35 8.675 10.625 8.33333 10.625Z" fill="var(--fill-0, white)"/>
<path id="Vector_5" d="M11.6667 8.95833C11.325 8.95833 11.0417 8.675 11.0417 8.33333V5.83333C11.0417 5.49167 11.325 5.20833 11.6667 5.20833C12.0083 5.20833 12.2917 5.49167 12.2917 5.83333V8.33333C12.2917 8.675 12.0083 8.95833 11.6667 8.95833Z" fill="var(--fill-0, white)"/>
<g id="Vector_6" opacity="0">
</g>
</g>
</svg>
