<svg preserveAspectRatio="none" width="100%" height="100%" overflow="visible" style="display: block;" viewBox="0 0 11.2282 6.87507" fill="none" xmlns="http://www.w3.org/2000/svg">
<path id="Vector" d="M1.60254 0.422852C2.53942 0.257897 3.34957 0.972285 3.34961 1.875C3.34961 2.24264 3.21411 2.57795 2.98926 2.83789L2.24121 3.70215L3.36523 3.49219C3.84979 3.40165 4.26703 3.19074 4.57031 2.91211C4.86861 2.63804 5.08238 2.27174 5.08691 1.87305C5.08826 1.74971 5.18924 1.65039 5.3125 1.65039H5.31543L5.36035 1.65527C5.46246 1.67722 5.53896 1.76842 5.53809 1.87695C5.53014 2.57091 5.08129 3.22511 4.33887 3.62402L3.66309 3.9873L4.34863 4.33301C4.89584 4.60906 5.47875 4.75991 6.24219 4.77539L6.46875 4.7793L6.58887 4.58691L7.47266 3.16992C7.68497 2.82936 8.10769 2.684 8.48535 2.82129L10.5137 3.56055L10.5205 3.5625C10.7675 3.64823 10.8927 3.92465 10.7939 4.16797C10.7038 4.3894 10.4576 4.505 10.2295 4.43164L8.87207 3.99414L8.47754 3.86719L8.36523 4.2666C8.03139 5.4494 7.09301 6.47455 5.625 6.47461C5.17648 6.47461 4.27093 6.47212 3.39258 6.08789C2.5385 5.71416 1.68701 4.97067 1.3418 3.4209L1.30371 3.24707L1.14941 3.15918L1.05371 3.10059C0.590012 2.78926 0.313016 2.22298 0.424805 1.59863C0.529608 1.0133 1.01737 0.527208 1.60352 0.423828L1.60254 0.422852Z" fill="var(--fill-0, white)" stroke="var(--stroke-0, white)" stroke-width="0.8"/>
</svg>
