<svg preserveAspectRatio="none" width="100%" height="100%" overflow="visible" style="display: block;" viewBox="0 0 16.5 18.1667" fill="none" xmlns="http://www.w3.org/2000/svg">
<path id="Vector" d="M11.5833 2.41667H12.4167C14.2576 2.41667 15.75 3.90905 15.75 5.75V14.0833C15.75 15.9243 14.2576 17.4167 12.4167 17.4167H4.08333C2.24238 17.4167 0.75 15.9243 0.75 14.0833V5.75C0.75 3.90905 2.24238 2.41667 4.08333 2.41667H4.91667M11.5833 2.41667C11.5833 3.33714 10.8371 4.08333 9.91667 4.08333H6.58333C5.66286 4.08333 4.91667 3.33714 4.91667 2.41667M11.5833 2.41667C11.5833 1.49619 10.8371 0.75 9.91667 0.75H6.58333C5.66286 0.75 4.91667 1.49619 4.91667 2.41667" stroke="var(--stroke-0, white)" stroke-width="1.5"/>
</svg>
