<svg preserveAspectRatio="none" width="100%" height="100%" overflow="visible" style="display: block;" viewBox="0 0 20 20" fill="none" xmlns="http://www.w3.org/2000/svg">
<g id="document-like">
<path id="Vector" d="M17.5 5.83333V14.1667C17.5 16.6667 16.25 18.3333 13.3333 18.3333H6.66667C3.75 18.3333 2.5 16.6667 2.5 14.1667V5.83333C2.5 3.33333 3.75 1.66667 6.66667 1.66667H13.3333C16.25 1.66667 17.5 3.33333 17.5 5.83333Z" stroke="var(--stroke-0, white)" stroke-width="1.25" stroke-miterlimit="10" stroke-linecap="round" stroke-linejoin="round"/>
<path id="Vector_2" d="M12.0833 3.75V5.41667C12.0833 6.33333 12.8333 7.08333 13.75 7.08333H15.4167" stroke="var(--stroke-0, white)" stroke-width="1.25" stroke-miterlimit="10" stroke-linecap="round" stroke-linejoin="round"/>
<path id="Vector_3" d="M6.23335 12.9083C5.95835 12.05 6.28332 10.9917 7.17499 10.7C7.64999 10.55 8.23333 10.675 8.55833 11.1333C8.86666 10.6583 9.475 10.55 9.94166 10.7C10.8417 10.9917 11.1583 12.05 10.8917 12.9083C10.4667 14.2666 8.97499 14.975 8.55833 14.975C8.14999 14.9666 6.67501 14.275 6.23335 12.9083Z" stroke="var(--stroke-0, white)" stroke-width="1.25" stroke-linecap="round" stroke-linejoin="round"/>
<g id="Vector_4" opacity="0">
</g>
</g>
</svg>
