<svg preserveAspectRatio="none" width="100%" height="100%" overflow="visible" style="display: block;" viewBox="0 0 20 20" fill="none" xmlns="http://www.w3.org/2000/svg">
<g id="glass">
<path id="Vector" d="M8.33333 14.5833H11.6667" stroke="var(--stroke-0, white)" stroke-width="1.5" stroke-linecap="round" stroke-linejoin="round"/>
<path id="Vector_2" d="M1.66667 14.5833V6.25C1.66667 2.91667 2.5 2.08333 5.83333 2.08333" stroke="var(--stroke-0, white)" stroke-width="1.5" stroke-linecap="round" stroke-linejoin="round"/>
<path id="Vector_3" d="M18.3333 14.5833V6.25C18.3333 2.91667 17.5 2.08333 14.1667 2.08333" stroke="var(--stroke-0, white)" stroke-width="1.5" stroke-linecap="round" stroke-linejoin="round"/>
<path id="Vector_4" d="M8.33333 13.2583V16C8.33333 17.6667 7.66667 18.3333 6 18.3333H4C2.33333 18.3333 1.66667 17.6667 1.66667 16V13.2583C1.66667 11.5917 2.33333 10.925 4 10.925H6C7.66667 10.925 8.33333 11.5917 8.33333 13.2583Z" stroke="var(--stroke-0, white)" stroke-width="1.5" stroke-linecap="round" stroke-linejoin="round"/>
<path id="Vector_5" d="M18.3333 13.2583V16C18.3333 17.6667 17.6667 18.3333 16 18.3333H14C12.3333 18.3333 11.6667 17.6667 11.6667 16V13.2583C11.6667 11.5917 12.3333 10.925 14 10.925H16C17.6667 10.925 18.3333 11.5917 18.3333 13.2583Z" stroke="var(--stroke-0, white)" stroke-width="1.5" stroke-linecap="round" stroke-linejoin="round"/>
<g id="Vector_6" opacity="0">
</g>
</g>
</svg>
