<svg preserveAspectRatio="none" width="100%" height="100%" overflow="visible" style="display: block;" viewBox="0 0 20 20" fill="none" xmlns="http://www.w3.org/2000/svg">
<g id="glass">
<path id="Vector" d="M6.8 18.3333C3.31667 18.3333 2.61667 16.225 3.75 13.6583L7.29167 5.61667H7.04167C6.5 5.61667 6 5.4 5.64167 5.04167C5.275 4.68333 5.05833 4.18333 5.05833 3.64167C5.05833 2.55833 5.94167 1.66667 7.03333 1.66667H12.9583C13.5083 1.66667 14 1.89167 14.3583 2.25C14.825 2.71667 15.0583 3.4 14.8833 4.125C14.6583 5.025 13.7917 5.61667 12.8667 5.61667H12.7333L16.25 13.6667C17.375 16.2333 16.6417 18.3333 13.1917 18.3333H6.8Z" stroke="var(--stroke-0, white)" stroke-width="1.5" stroke-linecap="round" stroke-linejoin="round"/>
<path id="Vector_2" d="M4.95 10.9333C4.95 10.9333 7.5 10.8333 10 11.6667C12.5 12.5 14.8583 10.925 14.8583 10.925" stroke="var(--stroke-0, white)" stroke-width="1.5" stroke-linecap="round" stroke-linejoin="round"/>
<g id="Vector_3" opacity="0">
</g>
</g>
</svg>
