<svg preserveAspectRatio="none" width="100%" height="100%" overflow="visible" style="display: block;" viewBox="0 0 20 20" fill="none" xmlns="http://www.w3.org/2000/svg">
<g id="document-like">
<g id="Vector" opacity="0">
</g>
<path id="Vector_2" opacity="0.4" d="M17.5 5.83333V14.1667C17.5 16.6667 16.25 18.3333 13.3333 18.3333H6.66667C3.75 18.3333 2.5 16.6667 2.5 14.1667V5.83333C2.5 3.33333 3.75 1.66667 6.66667 1.66667H13.3333C16.25 1.66667 17.5 3.33333 17.5 5.83333Z" fill="var(--fill-0, #4B4AD5)"/>
<g id="Group">
<path id="Vector_3" d="M15.4167 7.70833H13.75C12.4833 7.70833 11.4583 6.68333 11.4583 5.41667V3.75C11.4583 3.40833 11.7417 3.125 12.0833 3.125C12.425 3.125 12.7083 3.40833 12.7083 3.75V5.41667C12.7083 5.99167 13.175 6.45833 13.75 6.45833H15.4167C15.7583 6.45833 16.0417 6.74167 16.0417 7.08333C16.0417 7.425 15.7583 7.70833 15.4167 7.70833Z" fill="var(--fill-0, #4B4AD5)"/>
</g>
<path id="Vector_4" d="M6.23335 12.9083C5.95835 12.05 6.28332 10.9917 7.17499 10.7C7.64999 10.55 8.23333 10.675 8.55833 11.1333C8.86666 10.6583 9.475 10.55 9.94166 10.7C10.8417 10.9917 11.1583 12.05 10.8917 12.9083C10.4667 14.2666 8.97499 14.975 8.55833 14.975C8.14999 14.9666 6.67501 14.275 6.23335 12.9083Z" fill="var(--fill-0, #4B4AD5)"/>
<g id="Vector_5" opacity="0">
</g>
</g>
</svg>
