<svg preserveAspectRatio="none" width="100%" height="100%" overflow="visible" style="display: block;" viewBox="0 0 18.7565 3.94445" fill="none" xmlns="http://www.w3.org/2000/svg">
<path id="Vector" d="M2.00598 0.5C2.2105 0.500009 2.42022 0.536009 2.62415 0.610352L2.62317 0.611328C3.14443 0.800663 3.44573 1.0115 3.61926 1.20801C3.72655 1.32959 3.81971 1.48317 3.85266 1.67578C3.88499 1.86515 3.85054 2.03958 3.797 2.1875L3.79602 2.18848C3.64715 2.59699 3.31223 2.94943 2.95032 3.16992C2.5957 3.38597 2.09802 3.54295 1.62122 3.36914V3.37012C1.22077 3.22467 0.881443 2.94662 0.679811 2.57422C0.48922 2.22177 0.441358 1.81176 0.580201 1.42969C0.804314 0.812921 1.41325 0.5 2.00598 0.5ZM16.7511 0.5C17.3437 0.50017 17.9529 0.813039 18.1769 1.42969C18.3157 1.81171 18.2678 2.22181 18.0773 2.57422C17.9008 2.9002 17.6187 3.15388 17.2823 3.30957L17.1349 3.37012C16.6573 3.5432 16.1599 3.38557 15.8048 3.16895C15.443 2.94824 15.1086 2.59638 14.9601 2.18848V2.1875C14.9065 2.03955 14.8711 1.86521 14.9034 1.67578C14.9364 1.48314 15.0295 1.32961 15.1368 1.20801C15.3103 1.01145 15.6115 0.799748 16.1329 0.610352L16.2863 0.561523C16.4408 0.520114 16.5974 0.5 16.7511 0.5Z" fill="var(--fill-0, white)" stroke="var(--stroke-0, white)"/>
</svg>
