<svg preserveAspectRatio="none" width="100%" height="100%" overflow="visible" style="display: block;" viewBox="0 0 14.917 16.583" fill="none" xmlns="http://www.w3.org/2000/svg">
<path id="Icon" d="M12.417 10.333C12.6471 10.333 12.834 10.5199 12.834 10.75V12.208C12.834 12.3231 12.9269 12.417 13.042 12.417H14.5C14.73 12.417 14.9168 12.603 14.917 12.833V14.083C14.917 14.3131 14.7301 14.5 14.5 14.5H13.042C12.927 14.5 12.8342 14.5931 12.834 14.708V16.167C12.8338 16.397 12.647 16.583 12.417 16.583H11.167C10.937 16.583 10.7502 16.397 10.75 16.167V14.708C10.7498 14.5931 10.6569 14.5 10.542 14.5H9.08398C8.85387 14.5 8.66699 14.3131 8.66699 14.083V12.833C8.66717 12.603 8.85397 12.417 9.08398 12.417H10.542C10.6571 12.417 10.75 12.3231 10.75 12.208V10.75C10.75 10.5199 10.9369 10.333 11.167 10.333H12.417ZM8.04785 0C8.90971 1.37633e-05 9.73624 0.342769 10.3457 0.952148L13.0479 3.6543C13.6573 4.26378 14 5.09021 14 5.95215V7.83301C14 8.24722 13.6642 8.58301 13.25 8.58301C12.8359 8.58283 12.5 8.24711 12.5 7.83301V6.70215H9.71484C8.38031 6.70197 7.29785 5.61974 7.29785 4.28516V1.5H3.25C2.28365 1.50018 1.5 2.28361 1.5 3.25V13.25C1.5 14.2164 2.28365 14.9998 3.25 15H6.58301C6.99722 15 7.33301 15.3358 7.33301 15.75C7.33301 16.1642 6.99722 16.5 6.58301 16.5H3.25C1.45522 16.4998 0 15.0448 0 13.25V3.25C0 1.45518 1.45522 0.000175901 3.25 0H8.04785ZM8.79785 4.28516C8.79785 4.79131 9.20873 5.20197 9.71484 5.20215H12.3291C12.2441 5.02324 12.13 4.85757 11.9873 4.71484L9.28516 2.0127C9.14233 1.86991 8.97688 1.7549 8.79785 1.66992V4.28516Z" fill="var(--fill-0, white)"/>
</svg>
