<svg width="120" height="120" viewBox="0 0 120 120" fill="none" xmlns="http://www.w3.org/2000/svg">
  <!-- Folder back (dark side) -->
  <rect x="8" y="30" width="20" height="72" rx="3" fill="#C8CBD0" transform="skewY(-8) translate(0, 4)"/>
  <!-- Folder back (light side) -->
  <rect x="96" y="30" width="20" height="72" rx="3" fill="#D4D6DB" transform="skewY(8) translate(0, 4)"/>
  <!-- Main folder body -->
  <rect x="14" y="36" width="92" height="68" rx="6" fill="#E8EAEE"/>
  <!-- Folder tab -->
  <path d="M14 36 Q14 26 24 26 L50 26 Q56 26 58 32 L62 36 Z" fill="#D4D6DB"/>
  <!-- Document 1 (back) -->
  <rect x="28" y="20" width="52" height="62" rx="4" fill="#F5F5F7" transform="rotate(-6 54 51)"/>
  <!-- Document 2 (middle) -->
  <rect x="30" y="18" width="52" height="62" rx="4" fill="#FAFAFC" transform="rotate(-2 56 49)"/>
  <!-- Document 3 (front/top) -->
  <rect x="32" y="22" width="52" height="62" rx="4" fill="#FFFFFF"/>
  <!-- Lines on front document -->
  <rect x="40" y="36" width="32" height="4" rx="2" fill="#E0E2E7"/>
  <rect x="40" y="46" width="36" height="3" rx="1.5" fill="#EAECEF"/>
  <rect x="40" y="54" width="28" height="3" rx="1.5" fill="#EAECEF"/>
  <rect x="40" y="62" width="32" height="3" rx="1.5" fill="#EAECEF"/>
  <!-- Folded corner on front document -->
  <path d="M84 22 L84 32 L74 32 Z" fill="#E8EAEE"/>
  <path d="M84 22 L74 32 L84 32 Z" fill="#D4D6DB"/>
</svg>
