<svg preserveAspectRatio="none" width="100%" height="100%" overflow="visible" style="display: block;" viewBox="0 0 17.8336 13.0829" fill="none" xmlns="http://www.w3.org/2000/svg">
<path id="Vector" d="M14.0166 0.505821C14.9243 0.454149 15.7861 0.735109 16.4102 1.32613C17.0247 1.90802 17.334 2.70738 17.334 3.60152C17.3339 4.1612 17.1683 4.66728 16.8428 5.09762L16.3486 5.74996L15.9932 5.01266C15.9264 4.87395 15.8303 4.75937 15.7109 4.67281L15.377 4.43063L15.5518 4.0566C15.6626 3.81881 15.6717 3.5252 15.5527 3.25191H15.5518C15.5063 3.14747 15.3993 2.95766 15.1768 2.79391C14.9592 2.63391 14.5974 2.47359 13.9971 2.47359C12.8983 2.47364 12.3124 2.9849 11.9609 3.58785C11.5896 4.22492 11.4809 4.96829 11.4229 5.38668C11.2751 6.47393 10.6121 7.52042 10.2598 8.01754C10.0342 8.33554 9.91316 8.71683 9.91309 9.12496V12.583H7.91992V9.12496C7.91985 8.71647 7.79853 8.33515 7.57324 8.01754C7.22087 7.52033 6.55771 6.47453 6.40918 5.38668V5.3857C6.35128 4.96779 6.24403 4.22464 5.87305 3.58785C5.52175 2.98504 4.93497 2.47359 3.83594 2.47359C3.23559 2.47367 2.87373 2.63387 2.65625 2.79391C2.43362 2.95776 2.32668 3.14753 2.28125 3.25191C2.16223 3.52529 2.17135 3.81881 2.28223 4.0566L2.45703 4.43063L2.12305 4.67281C2.00365 4.75934 1.90749 4.87404 1.84082 5.01266L1.48535 5.75094L0.991211 5.09762C0.665662 4.66732 0.500059 4.16131 0.5 3.60152C0.5 2.7072 0.809137 1.90791 1.42383 1.32613L1.54297 1.21871C2.15512 0.700987 2.96451 0.458347 3.81641 0.505821L3.81543 0.506797C5.5289 0.600147 6.45231 1.46037 7.1748 2.12789C7.81158 2.71656 8.25375 3.09859 8.91699 3.09859C9.5802 3.09852 10.0224 2.71661 10.6592 2.12789L10.9404 1.87008C11.6243 1.25697 12.518 0.588771 14.0166 0.506797V0.505821Z" stroke="var(--stroke-0, white)"/>
</svg>
