<svg width="80" height="80" viewBox="0 0 80 80" fill="none" xmlns="http://www.w3.org/2000/svg">
<g clip-path="url(#clip0_913_26868)">
<path d="M71.9803 14.6484H9.57474C8.73282 14.649 7.92552 14.9836 7.33019 15.579C6.73486 16.1743 6.40018 16.9816 6.39966 17.8235V75.0812C6.40018 75.9231 6.73486 76.7304 7.33019 77.3258C7.92552 77.9211 8.73282 78.2558 9.57474 78.2563H71.9803C72.8223 78.2559 73.6297 77.9212 74.2251 77.3259C74.8205 76.7305 75.1552 75.9232 75.1557 75.0812V17.8235C75.1552 16.9815 74.8205 16.1742 74.2251 15.5789C73.6297 14.9835 72.8223 14.6489 71.9803 14.6484Z" fill="#C6C6C6"/>
<path d="M67.8722 58.3622H13.6836C11.9302 58.3622 10.5085 56.9406 10.5085 55.1871V4.59696C10.5085 2.84351 11.9302 1.42188 13.6836 1.42188H67.8722C69.6256 1.42188 71.0472 2.84351 71.0472 4.59696V55.1871C71.0472 56.9406 69.6256 58.3622 67.8722 58.3622Z" fill="#F9F9F9"/>
<path d="M11.5138 56.192V5.6022C11.5138 3.84876 12.9354 2.42712 14.6889 2.42712H68.8774C69.4967 2.42712 70.0725 2.60712 70.5607 2.91368C69.9994 2.0186 69.0066 1.42188 67.8722 1.42188H13.6836C11.9302 1.42188 10.5085 2.84351 10.5085 4.59696V55.1871C10.5085 56.3219 11.1053 57.3143 12.0003 57.876C11.6938 57.3874 11.5138 56.8117 11.5138 56.1924V56.192Z" fill="url(#paint0_linear_913_26868)"/>
<path d="M61.2048 12.1094H20.3513V14.4376H61.2048V12.1094ZM61.2048 20.9992H20.3513V23.3274H61.2048V20.9992ZM61.2048 29.891H20.3513V32.2192H61.2048V29.891ZM61.2048 38.7808H20.3513V41.1094H61.2048V38.7808Z" fill="white"/>
<path d="M25.2197 31.2656L35.4856 41.5319H25.2197V31.2656Z" fill="url(#paint1_linear_913_26868)"/>
<path d="M75.1559 42.3779V18.7573L71.0474 14.6484V42.3776H75.1559V42.3779Z" fill="#C6C6C6"/>
<path d="M79.9682 44.5123L75.5416 75.8474C75.3203 77.4139 73.9796 78.5782 72.3977 78.5782H9.15767C7.57571 78.5782 6.23505 77.4139 6.01374 75.8474L0.0317719 33.5061C-0.238064 31.5946 1.24521 29.8867 3.17571 29.8867H22.7055C24.2875 29.8867 25.6282 31.051 25.8495 32.6172L26.6334 38.1621C26.8547 39.7287 28.1954 40.8929 29.7773 40.8929H76.8249C78.7547 40.8929 80.2383 42.6008 79.9685 44.5123H79.9682Z" fill="url(#paint2_linear_913_26868)"/>
<path d="M64.2844 64.6016H17.2716C17.0139 64.6015 16.7651 64.5074 16.5718 64.337C16.3785 64.1667 16.2539 63.9316 16.2214 63.676L15.6332 59.0189C15.6145 58.87 15.6278 58.7187 15.672 58.5752C15.7162 58.4317 15.7904 58.2993 15.8897 58.1867C15.9891 58.0741 16.1112 57.9839 16.248 57.922C16.3848 57.8602 16.5333 57.8282 16.6834 57.8281H64.8726C65.0227 57.8282 65.1711 57.8602 65.308 57.922C65.4448 57.9839 65.5669 58.0741 65.6662 58.1867C65.7655 58.2993 65.8398 58.4317 65.884 58.5752C65.9282 58.7187 65.9414 58.87 65.9227 59.0189L65.3345 63.676C65.3021 63.9316 65.1775 64.1667 64.9842 64.337C64.7909 64.5074 64.5421 64.6015 64.2844 64.6016Z" fill="#D5D5D5"/>
</g>
<defs>
<linearGradient id="paint0_linear_913_26868" x1="42.6397" y1="31.7504" x2="2.4856" y2="-8.40403" gradientUnits="userSpaceOnUse">
<stop stop-color="white"/>
</linearGradient>
<linearGradient id="paint1_linear_913_26868" x1="32.0024" y1="43.1791" x2="19.5935" y2="30.7705" gradientUnits="userSpaceOnUse">
<stop stop-color="#C2CECE" stop-opacity="0"/>
<stop offset="0.179" stop-color="#AFBCBC" stop-opacity="0.179"/>
<stop offset="1" stop-color="#5B6A6A"/>
</linearGradient>
<linearGradient id="paint2_linear_913_26868" x1="40" y1="29.8867" x2="40" y2="78.5782" gradientUnits="userSpaceOnUse">
<stop stop-color="#EEF0F4"/>
<stop offset="0.927" stop-color="#E4E4E4"/>
</linearGradient>
<clipPath id="clip0_913_26868">
<rect width="80" height="80" fill="white"/>
</clipPath>
</defs>
</svg>